<svg xmlns="http://www.w3.org/2000/svg" viewBox="0 0 512 440" fill="none" stroke="#000" stroke-width="3" stroke-linecap="round" stroke-linejoin="round">
  <!-- Outer cortical surface with gyri -->
  <path d="
    M 395,240
    C 405,228 412,212 410,195
    C 408,178 400,162 388,148
    C 378,138 365,125 348,115
    C 338,108 325,100 310,94
    C 298,90 282,84 265,80
    C 248,77 230,76 215,78
    C 198,80 182,84 168,90
    C 152,98 138,108 126,120
    C 114,132 104,146 97,162
    C 90,178 86,195 85,212
    C 84,225 85,238 88,248
  "/>
  <!-- Frontal lobe gyri -->
  <path d="M 388,148 C 380,142 372,138 362,136 C 355,140 348,135 340,130"/>
  <path d="M 348,115 C 340,118 332,112 322,108 C 312,105 302,110 295,105"/>
  <path d="M 310,94 C 300,98 290,93 280,90 C 270,88 260,92 252,88"/>
  <!-- Parietal gyri -->
  <path d="M 265,80 C 255,84 245,79 235,78 C 225,80 215,76 208,80"/>
  <path d="M 215,78 C 208,82 198,78 190,82 C 182,85 174,80 168,85"/>
  <!-- Temporal lobe folds -->
  <path d="M 168,90 C 160,96 150,92 142,98 C 134,104 126,100 120,108"/>
  <path d="M 126,120 C 118,126 110,122 104,130 C 98,138 92,135 88,142"/>
  <!-- Occipital region -->
  <path d="M 97,162 C 92,168 88,176 86,185"/>
  <!-- Sylvian fissure -->
  <path d="M 300,145 C 275,155 250,162 228,168 C 210,172 195,178 182,186"/>
  <!-- Central sulcus -->
  <path d="M 275,82 C 268,100 260,118 255,138 C 250,155 248,168 245,182"/>
  <!-- Corpus callosum region -->
  <path d="M 160,185 C 180,170 210,160 245,158 C 280,156 310,162 340,175 C 360,184 375,195 385,210"/>
  <path d="M 165,200 C 185,188 215,178 248,176 C 282,174 312,180 338,192 C 355,200 368,210 378,222"/>
  <!-- Cerebellum -->
  <path d="
    M 88,248
    C 86,258 82,268 80,278
    C 78,290 80,302 86,312
    C 92,320 100,328 112,334
    C 124,338 136,340 148,338
    C 158,336 166,330 172,322
    C 176,316 178,308 178,300
  "/>
  <!-- Cerebellum folia -->
  <path d="M 82,275 C 95,280 108,285 120,288 C 132,290 142,292 150,290"/>
  <path d="M 80,290 C 92,296 106,302 118,306 C 130,310 140,312 150,310"/>
  <path d="M 84,305 C 96,312 108,318 120,322 C 130,325 140,326 148,324"/>
  <!-- Brainstem -->
  <path d="
    M 178,300
    C 182,290 188,280 192,268
    C 196,256 198,245 200,235
  "/>
  <path d="
    M 172,322
    C 178,332 184,340 188,350
    C 192,360 195,368 198,375
    C 200,382 204,388 210,392
    C 216,396 222,394 226,388
    C 228,382 226,374 222,366
    C 218,356 214,346 212,338
  "/>
  <!-- Temporal pole / inferior -->
  <path d="
    M 212,338
    C 228,330 248,318 270,305
    C 292,292 315,278 335,265
    C 355,252 372,242 385,235
    C 392,232 398,234 395,240
  "/>
  <!-- Pons region -->
  <path d="M 192,268 C 198,275 206,280 215,282"/>
  <path d="M 200,252 C 208,258 218,262 228,264"/>
  <!-- Lateral fissure details -->
  <path d="M 345,175 C 330,185 310,195 290,202"/>
  <path d="M 255,138 C 240,148 225,158 215,168"/>
</svg>
