<?xml version="1.0" standalone="no"?>
<!DOCTYPE svg PUBLIC "-//W3C//DTD SVG 20010904//EN"
 "http://www.w3.org/TR/2001/REC-SVG-20010904/DTD/svg10.dtd">
<svg version="1.0" xmlns="http://www.w3.org/2000/svg"
 width="980.000000pt" height="980.000000pt" viewBox="0 0 980.000000 980.000000"
 preserveAspectRatio="xMidYMid meet">
<metadata>
Created by potrace 1.16, written by Peter Selinger 2001-2019
</metadata>
<g transform="translate(0.000000,980.000000) scale(0.100000,-0.100000)"
fill="#000000" stroke="none">
<path d="M4645 7710 c-83 -9 -194 -34 -230 -52 -11 -6 -30 -19 -41 -30 -22
-19 -23 -19 -130 8 -204 53 -456 32 -736 -60 -189 -62 -324 -145 -377 -232
-19 -32 -32 -43 -51 -44 -39 0 -120 -24 -170 -50 -90 -45 -139 -87 -352 -301
-169 -169 -223 -230 -246 -276 -38 -75 -53 -146 -42 -201 5 -30 4 -45 -4 -48
-6 -2 -31 -11 -55 -19 -63 -22 -123 -71 -164 -135 -19 -30 -77 -137 -128 -237
-90 -175 -94 -186 -95 -250 -1 -58 -7 -80 -39 -143 -86 -171 -111 -309 -81
-450 22 -104 53 -160 151 -273 80 -92 85 -101 85 -144 0 -59 26 -236 50 -338
57 -244 179 -493 314 -643 113 -123 301 -246 451 -292 151 -46 344 -61 514
-40 46 6 86 8 89 5 10 -9 -54 -312 -92 -437 -20 -64 -54 -160 -77 -212 -45
-106 -43 -126 12 -126 60 0 122 -41 245 -165 112 -113 169 -155 207 -155 9 0
35 37 63 87 177 326 364 553 624 758 212 167 325 299 361 421 12 40 16 44 39
40 14 -3 162 -6 330 -8 l305 -3 65 31 c36 18 90 37 120 44 93 21 263 108 429
218 166 111 252 276 222 425 -14 66 -57 134 -150 237 -35 39 -61 73 -59 75 2
2 42 5 90 7 l86 3 153 -75 153 -75 195 -3 c108 -2 232 -4 276 -4 71 -2 132 6
325 44 145 27 298 112 434 239 78 73 182 202 216 268 27 54 58 157 65 221 4
31 23 87 44 129 34 71 36 80 36 175 0 92 -3 106 -30 160 -19 39 -51 78 -92
115 l-63 56 0 100 c0 172 -46 291 -157 402 -48 48 -86 74 -172 116 -109 54
-111 56 -161 130 -104 156 -279 278 -518 361 -135 47 -133 46 -238 145 -153
147 -285 200 -491 201 -92 0 -102 2 -108 19 -15 48 -171 142 -315 190 -127 41
-291 46 -414 13 -21 -6 -57 0 -126 19 -185 52 -392 74 -545 59z m230 -70 c109
-11 295 -49 295 -61 0 -4 -21 -19 -46 -34 -38 -22 -45 -31 -42 -53 4 -36 29
-39 75 -7 59 40 180 82 271 95 139 19 253 -5 422 -90 128 -64 159 -100 85
-100 -31 0 -65 -21 -65 -39 0 -5 7 -14 15 -21 13 -11 35 -11 110 -2 285 35
428 -4 599 -167 110 -104 134 -120 255 -160 181 -62 307 -136 417 -246 82 -83
139 -185 154 -279 11 -66 19 -80 46 -74 16 3 19 13 19 66 0 72 2 72 94 19 88
-52 156 -125 198 -214 36 -75 38 -84 43 -209 6 -148 12 -164 84 -213 31 -22
53 -48 73 -88 24 -50 28 -70 28 -143 -1 -104 -22 -154 -104 -242 -49 -53 -73
-69 -210 -135 -85 -41 -177 -93 -204 -116 -27 -22 -93 -92 -146 -156 -54 -64
-105 -122 -114 -130 -37 -30 -2 -76 40 -52 10 5 67 67 128 137 131 153 178
190 310 246 55 24 126 60 158 81 59 38 59 38 53 12 -28 -113 -93 -220 -201
-334 -110 -116 -236 -203 -355 -246 -56 -21 -360 -75 -418 -75 -50 0 -132 19
-132 30 0 12 84 79 186 148 108 74 127 93 122 124 -5 34 -34 34 -74 -1 -19
-17 -75 -58 -124 -91 -90 -61 -148 -111 -189 -165 -23 -30 -23 -30 -129 -30
l-107 0 -148 74 -148 75 -137 -2 -137 -3 -37 38 c-36 37 -37 40 -27 78 12 41
47 80 183 198 49 43 91 97 160 200 104 159 177 235 263 275 87 40 139 36 240
-17 85 -44 123 -75 154 -126 25 -40 24 -42 -15 -55 -73 -24 -152 -85 -191
-149 -25 -41 -52 -69 -81 -86 -24 -14 -68 -56 -98 -94 -61 -76 -97 -109 -162
-147 -34 -20 -44 -32 -42 -48 9 -64 138 6 243 133 36 44 84 90 105 102 25 14
56 47 85 90 50 77 106 115 214 149 78 25 124 25 177 1 45 -21 44 -17 60 -149
7 -60 31 -83 58 -56 17 16 14 99 -5 176 -18 72 -108 122 -210 117 l-52 -3 -22
45 c-34 65 -105 126 -203 172 -108 50 -174 54 -267 16 l-59 -24 -81 82 c-140
142 -255 177 -365 111 -59 -37 -76 -57 -67 -82 9 -24 44 -20 83 10 47 37 108
42 168 15 48 -21 196 -154 196 -176 0 -6 -20 -30 -44 -54 -44 -43 -60 -66
-169 -231 -53 -81 -88 -119 -225 -237 -34 -30 -69 -72 -82 -98 -12 -25 -24
-45 -27 -45 -2 0 -23 13 -46 29 -49 33 -118 69 -164 85 l-34 11 63 50 c159
128 209 284 207 647 -1 142 2 171 20 223 54 151 67 289 37 388 -14 46 -13 48
7 61 43 27 103 40 182 40 95 1 166 -28 202 -82 34 -52 62 -136 71 -210 5 -53
11 -67 25 -70 32 -6 49 18 45 67 -3 42 -1 45 27 53 62 19 177 13 232 -12 66
-28 104 -71 168 -183 28 -52 67 -105 93 -127 70 -63 181 -73 182 -18 0 13 -32
38 -41 32 -19 -11 -78 18 -112 55 -19 21 -52 71 -73 112 -94 179 -220 242
-434 216 l-65 -8 -17 49 c-25 69 -79 136 -132 161 -102 50 -249 48 -364 -4
l-52 -24 -45 57 c-25 31 -45 62 -45 67 -3 174 -7 202 -28 243 -17 32 -28 42
-47 42 -33 0 -39 -29 -15 -81 15 -33 20 -66 20 -135 0 -98 9 -119 90 -219 46
-58 61 -90 70 -157 10 -72 0 -140 -40 -268 -28 -91 -30 -104 -33 -315 -5 -243
-13 -296 -62 -401 -42 -87 -111 -155 -198 -193 -56 -25 -71 -27 -159 -23 l-97
3 -32 55 c-46 81 -118 148 -203 189 -40 19 -80 35 -88 35 -11 0 -17 16 -22 64
-8 78 -38 168 -104 306 -95 202 -105 273 -58 425 72 231 41 404 -97 539 -39
38 -92 77 -139 101 l-76 39 -7 51 c-10 77 -40 131 -109 187 -86 72 -168 108
-259 115 -92 7 -155 -10 -286 -78 -85 -44 -109 -51 -206 -65 -140 -19 -176
-29 -250 -67 -80 -43 -219 -182 -265 -267 l-35 -65 -67 -7 c-148 -14 -272
-137 -293 -290 -6 -41 -4 -48 15 -58 25 -14 50 1 50 31 0 45 45 135 90 180 54
54 83 64 214 76 101 9 125 25 92 62 -17 19 -17 21 22 78 46 68 140 158 203
195 55 32 96 43 229 62 122 17 168 32 250 80 164 96 316 83 458 -39 66 -57 77
-85 77 -195 0 -90 1 -95 22 -98 13 -2 27 5 36 18 l15 22 54 -28 c84 -46 181
-147 208 -219 31 -83 24 -233 -15 -350 -51 -151 -36 -256 69 -478 63 -135 86
-201 89 -258 l2 -42 -134 2 c-73 1 -145 7 -158 12 -34 13 -223 193 -280 266
-97 125 -153 258 -153 363 0 32 7 94 15 137 45 233 -18 451 -152 530 -87 50
-222 19 -392 -91 -78 -50 -85 -58 -76 -86 9 -28 33 -25 85 11 69 47 175 98
232 113 100 25 148 -3 205 -123 32 -66 37 -86 41 -170 3 -64 -1 -124 -12 -180
-23 -121 -21 -198 10 -289 14 -42 34 -92 45 -111 11 -18 18 -35 16 -37 -2 -2
-23 6 -48 18 -62 31 -236 39 -255 13 -9 -12 -10 -23 -4 -36 8 -14 23 -17 87
-17 56 1 92 -4 129 -19 70 -27 241 -151 344 -249 129 -122 116 -116 308 -124
135 -6 180 -12 235 -30 97 -33 164 -83 214 -160 78 -121 63 -112 204 -120 133
-8 181 -18 273 -57 81 -34 164 -91 254 -177 94 -89 258 -279 283 -328 63 -123
10 -275 -134 -384 -102 -77 -387 -234 -425 -234 -2 0 -1 12 2 26 8 30 -8 54
-35 54 -12 0 -25 -15 -37 -44 -23 -50 -70 -90 -127 -105 -27 -7 -141 -8 -350
-2 -284 7 -315 10 -366 30 -75 29 -145 91 -178 159 -14 31 -31 57 -37 59 -20
6 -46 -28 -40 -51 21 -73 29 -66 -81 -66 -159 0 -219 21 -400 140 -58 38 -123
72 -150 79 -175 44 -216 66 -338 182 -70 66 -103 90 -143 103 -57 19 -196 35
-312 36 -208 1 -388 91 -544 272 -56 64 -60 67 -80 54 -27 -18 -22 -41 21 -94
19 -24 32 -46 29 -49 -10 -10 -122 25 -186 57 -37 19 -72 47 -96 77 -21 26
-75 89 -119 138 -208 231 -228 269 -229 435 -1 79 4 119 18 160 35 101 84 194
148 279 35 45 69 91 76 101 7 9 10 24 6 34 -11 28 -50 19 -84 -21 -28 -34 -31
-35 -26 -13 6 28 176 356 212 409 47 69 152 119 223 106 20 -4 61 -7 91 -8 52
-2 55 -1 55 23 0 21 -7 27 -46 36 -67 17 -86 30 -99 68 -14 43 1 114 37 175
33 57 420 445 497 499 86 61 168 85 273 81 72 -3 87 -1 96 13 13 20 -6 48 -34
48 -32 0 -21 26 27 69 87 77 217 134 417 186 332 85 525 69 801 -65 119 -58
205 -130 244 -204 23 -45 27 -62 27 -141 -1 -102 -14 -155 -51 -210 -27 -41
-28 -62 -2 -79 23 -14 51 13 83 81 14 29 29 53 33 53 4 0 30 -13 58 -30 64
-36 100 -78 115 -133 6 -23 24 -84 40 -135 33 -106 35 -152 13 -259 -18 -86
-14 -103 20 -103 19 0 27 8 36 35 14 41 20 43 47 13 56 -62 65 -106 72 -353 6
-197 9 -225 29 -268 19 -43 25 -48 49 -45 33 4 35 27 9 93 -11 31 -15 81 -16
217 0 187 -9 252 -45 333 -20 45 -83 115 -104 115 -5 0 -11 39 -14 88 -3 57
-13 109 -30 152 -13 36 -27 86 -31 111 -13 87 -71 155 -186 218 l-52 29 -2 88
c-1 74 -6 99 -28 147 -42 89 -132 172 -253 234 l-100 52 45 20 c56 24 165 43
285 49 17 1 75 -3 130 -8z m-2812 -2960 c45 -59 99 -92 210 -132 63 -22 96
-28 143 -26 58 3 65 0 122 -39 80 -57 192 -110 261 -123 136 -28 133 -26 57
-35 -38 -4 -128 -5 -200 -2 -206 8 -395 66 -548 167 l-67 43 -11 71 c-6 39
-13 83 -16 99 -8 39 6 33 49 -23z m112 -308 c190 -94 351 -127 585 -119 166 5
218 14 343 59 52 19 63 20 115 8 59 -13 95 -32 125 -64 23 -26 22 -31 -16 -60
-130 -99 -400 -153 -717 -143 -187 6 -281 22 -386 64 -70 27 -68 25 -125 192
-32 93 -37 130 -16 113 6 -6 48 -28 92 -50z m1308 -244 c35 -24 72 -48 83 -54
17 -10 17 -13 4 -29 -41 -50 -181 -127 -314 -174 -235 -83 -568 -114 -776 -72
-97 20 -108 24 -138 59 -40 44 -126 171 -120 177 2 2 25 -2 52 -10 110 -33
265 -48 456 -42 282 8 483 55 612 142 35 23 66 43 70 44 4 0 36 -18 71 -41z
m307 -126 c30 -15 56 -34 58 -42 1 -9 -20 -41 -48 -72 -137 -153 -391 -272
-725 -339 -100 -20 -117 -21 -185 -9 -125 21 -258 76 -363 151 l-38 28 148 -6
c287 -11 578 46 795 156 84 43 192 121 208 152 9 16 18 18 53 13 23 -3 67 -18
97 -32z m175 -111 c25 -16 73 -39 106 -52 l62 -22 -79 -40 c-124 -63 -279
-125 -403 -163 -119 -36 -283 -75 -289 -69 -2 1 21 12 50 23 215 81 385 192
465 304 19 26 37 48 39 48 2 0 24 -13 49 -29z m526 -107 c13 -14 54 -41 91
-60 l68 -34 -26 -58 c-55 -125 -113 -189 -340 -373 -247 -200 -389 -364 -553
-639 -44 -74 -87 -144 -94 -155 -13 -18 -21 -12 -138 106 -98 99 -138 132
-191 158 l-66 33 23 52 c59 133 150 485 159 612 l4 57 129 32 c209 54 413 134
593 233 80 44 90 47 180 53 52 3 104 6 116 7 11 1 31 -10 45 -24z M5565 7256
c-72 -23 -135 -63 -135 -86 0 -5 7 -15 15 -24 14 -13 23 -11 87 19 56 27 85
35 129 35 151 0 337 -116 413 -259 l29 -55 -31 -26 c-36 -30 -41 -55 -13 -70
16 -8 30 -4 68 20 89 55 218 73 335 49 150 -32 228 -106 339 -322 39 -78 80
-154 90 -169 11 -14 19 -40 19 -57 0 -36 15 -46 85 -55 162 -23 346 -91 429
-160 64 -52 98 -123 98 -205 1 -123 -51 -220 -148 -277 -34 -20 -44 -32 -42
-48 8 -54 118 -6 184 81 80 105 102 266 51 376 -55 120 -208 221 -414 272 -56
14 -109 25 -116 25 -27 0 -86 79 -138 182 -116 231 -184 321 -287 376 -107 57
-264 77 -387 48 -33 -8 -60 -14 -61 -13 -1 1 -16 31 -35 67 -105 200 -380 334
-564 276z M3057 6150 c-32 -12 -77 -33 -100 -47 -53 -33 -157 -133 -192 -183
-25 -36 -28 -38 -99 -42 -96 -6 -157 -40 -247 -136 -76 -82 -147 -210 -174
-317 -24 -91 -22 -217 5 -287 41 -110 160 -195 304 -217 38 -5 73 -8 78 -5 14
9 37 -11 67 -58 79 -124 345 -263 660 -344 74 -19 168 -37 210 -41 72 -6 79
-8 126 -50 125 -112 310 -155 468 -108 97 28 192 2 343 -96 61 -39 87 -43 98
-12 9 22 1 30 -76 80 -87 56 -160 88 -235 104 -51 11 -69 10 -133 -6 -179 -45
-340 -1 -451 122 -19 21 -41 53 -48 70 -16 39 -47 52 -69 29 -13 -13 -13 -20
-3 -42 l12 -27 -53 7 c-179 23 -461 120 -623 214 -73 42 -185 139 -185 159 0
5 15 13 32 18 38 11 49 42 23 61 -12 9 -26 9 -48 3 -51 -16 -178 -13 -239 5
-138 40 -210 132 -211 268 0 161 79 337 207 459 42 40 118 79 156 79 30 0 30
0 17 -27 -26 -50 -28 -70 -12 -87 23 -23 43 -10 72 48 42 82 96 157 163 222
123 123 256 160 400 114 78 -25 100 -22 100 14 0 60 -227 97 -343 56z M3212
5438 c-19 -19 -15 -27 29 -75 22 -25 39 -47 36 -49 -3 -3 -20 2 -38 12 -102
52 -291 92 -364 77 -36 -8 -40 -12 -40 -38 l0 -29 85 -2 c105 -3 180 -22 289
-75 67 -33 100 -58 160 -119 106 -108 140 -124 268 -125 57 0 103 -3 103 -7 0
-4 25 -34 56 -67 66 -71 144 -113 254 -137 85 -18 242 -22 343 -10 49 5 67 4
67 -4 0 -7 24 -49 54 -94 62 -96 178 -217 256 -269 97 -64 258 -107 403 -107
66 0 172 -27 237 -60 45 -23 79 -60 89 -96 6 -24 13 -29 37 -29 23 0 30 5 32
23 8 56 -53 129 -146 172 l-45 21 84 42 c87 43 104 67 67 90 -13 9 -28 5 -65
-15 -94 -51 -187 -73 -308 -73 -197 1 -319 49 -449 179 -79 78 -193 232 -181
245 4 3 25 12 47 21 52 19 69 43 47 66 -15 14 -23 14 -98 -10 -195 -62 -438
-53 -582 19 -75 38 -179 172 -179 230 0 8 -9 19 -21 25 -32 18 -52 -5 -45 -52
l6 -38 -56 0 c-31 0 -74 5 -96 12 -50 15 -120 77 -143 125 -48 105 -73 149
-108 189 -39 45 -63 54 -85 32z"/>
</g>
</svg>
